<?xml version="1.0" encoding="UTF-8" standalone="no"?>
<!-- Generator: Adobe Illustrator 21.0.2, SVG Export Plug-In . SVG Version: 6.00 Build 0)  -->

<svg
   xmlns:dc="http://purl.org/dc/elements/1.1/"
   xmlns:cc="http://creativecommons.org/ns#"
   xmlns:rdf="http://www.w3.org/1999/02/22-rdf-syntax-ns#"
   xmlns:svg="http://www.w3.org/2000/svg"
   xmlns="http://www.w3.org/2000/svg"
   xmlns:sodipodi="http://sodipodi.sourceforge.net/DTD/sodipodi-0.dtd"
   xmlns:inkscape="http://www.inkscape.org/namespaces/inkscape"
   version="1.1"
   id="Layer_1"
   x="0px"
   y="0px"
   viewBox="0 0 162.05222 194.57518"
   xml:space="preserve"
   inkscape:version="0.92.2 5c3e80d, 2017-08-06"
   sodipodi:docname="logo.svg"
   width="162.05222"
   height="194.57518"><metadata
     id="metadata3573"><rdf:RDF><cc:Work
         rdf:about=""><dc:format>image/svg+xml</dc:format><dc:type
           rdf:resource="http://purl.org/dc/dcmitype/StillImage" /><dc:title></dc:title></cc:Work></rdf:RDF></metadata><defs
     id="defs3571" /><sodipodi:namedview
     pagecolor="#ffffff"
     bordercolor="#666666"
     borderopacity="1"
     objecttolerance="10"
     gridtolerance="10"
     guidetolerance="10"
     inkscape:pageopacity="0"
     inkscape:pageshadow="2"
     inkscape:window-width="1920"
     inkscape:window-height="1031"
     id="namedview3569"
     showgrid="false"
     inkscape:zoom="2.4347454"
     inkscape:cx="-59.997721"
     inkscape:cy="71.115167"
     inkscape:window-x="0"
     inkscape:window-y="27"
     inkscape:window-maximized="1"
     inkscape:current-layer="Layer_1"
     scale-x="1"
     fit-margin-top="0"
     fit-margin-left="0"
     fit-margin-right="0"
     fit-margin-bottom="0" /><style
     type="text/css"
     id="style3501">
	.st0{fill:#373737;}
	.st1{fill:#E82429;}
	.st2{fill:#6289C6;}
	.st3{fill:#F9C515;}
	.st4{fill:#8061A9;}
	.st5{fill:#F17423;}
	.st6{fill:#97C93D;}
	.st7{fill:#CADD72;}
	.st8{fill:#1E2222;}
</style><g
     id="g3503"
     transform="matrix(0.88539305,0,0,0.88539305,0.53123583,112.83013)"><g
       id="g3505"><g
         id="g3507"><path
           class="st0"
           d="M 39.4,23.8 H 26.6 l -6.4,11.1 6.4,11 h 12.8 l 6.4,-11 z m -1.7,19.1 h -9.4 l -4.7,-8 4.7,-8.1 h 9.4 l 4.7,8.1 z"
           id="path3509"
           inkscape:connector-curvature="0"
           style="fill:#373737" /><polygon
           class="st1"
           points="28.3,26.7 23.6,34.9 28.3,42.9 37.7,42.9 42.4,34.9 37.7,26.7 "
           id="polygon3511"
           style="fill:#e82429" /></g><g
         id="g3513"><path
           class="st0"
           d="M 39.4,47.4 H 26.6 l -6.4,11.1 6.4,11 h 12.8 l 6.4,-11 z m -1.7,19.2 h -9.4 l -4.7,-8 4.7,-8.1 h 9.4 l 4.7,8.1 z"
           id="path3515"
           inkscape:connector-curvature="0"
           style="fill:#373737" /><polygon
           class="st2"
           points="28.3,50.4 23.6,58.5 28.3,66.6 37.7,66.6 42.4,58.5 37.7,50.4 "
           id="polygon3517"
           style="fill:#6289c6" /></g><g
         id="g3519"><path
           class="st0"
           d="M 39.4,0.1 H 26.6 l -6.4,11.1 6.4,11 h 12.8 l 6.4,-11 z m -1.7,19.1 h -9.4 l -4.7,-8 4.7,-8.2 h 9.4 l 4.7,8.1 z"
           id="path3521"
           inkscape:connector-curvature="0"
           style="fill:#373737" /><polygon
           class="st3"
           points="28.3,3 23.6,11.2 28.3,19.2 37.7,19.2 42.4,11.2 37.7,3 "
           id="polygon3523"
           style="fill:#f9c515" /></g></g><g
       id="g3525"><g
         id="g3527"><path
           class="st0"
           d="M 60.2,35.7 H 47.5 l -6.4,11.1 6.4,11 h 12.8 l 6.4,-11 z m -1.7,19.1 h -9.4 l -4.7,-8 4.7,-8.1 h 9.4 l 4.7,8.1 z"
           id="path3529"
           inkscape:connector-curvature="0"
           style="fill:#373737" /><polygon
           class="st4"
           points="49.2,38.6 44.5,46.8 49.2,54.8 58.5,54.8 63.3,46.8 58.5,38.6 "
           id="polygon3531"
           style="fill:#8061a9" /></g><g
         id="g3533"><path
           class="st0"
           d="M 60.2,12 H 47.5 l -6.4,11 6.4,11 h 12.8 l 6.4,-11 z m -1.7,19.1 h -9.4 l -4.7,-8 4.7,-8.1 h 9.4 l 4.7,8.1 z"
           id="path3535"
           inkscape:connector-curvature="0"
           style="fill:#373737" /><polygon
           class="st5"
           points="49.2,14.9 44.5,23.1 49.2,31.1 58.5,31.1 63.3,23.1 58.5,14.9 "
           id="polygon3537"
           style="fill:#f17423" /></g></g><g
       id="g3539"><g
         id="g3541"><path
           class="st0"
           d="M 18.5,35.7 H 5.8 l -6.4,11.1 6.4,11 H 18.6 L 25,46.8 Z M 16.8,54.8 H 7.5 l -4.7,-8 4.7,-8.1 h 9.4 l 4.7,8.1 z"
           id="path3543"
           inkscape:connector-curvature="0"
           style="fill:#373737" /><polygon
           class="st6"
           points="7.5,38.6 2.8,46.8 7.5,54.8 16.8,54.8 21.6,46.8 16.8,38.6 "
           id="polygon3545"
           style="fill:#97c93d" /></g><g
         id="g3547"><path
           class="st0"
           d="M 18.5,12 H 5.8 L -0.6,23 5.8,34 H 18.6 L 25,23 Z M 16.8,31.1 H 7.5 L 2.8,23.1 7.5,15 h 9.4 l 4.7,8.1 z"
           id="path3549"
           inkscape:connector-curvature="0"
           style="fill:#373737" /><polygon
           class="st7"
           points="7.5,14.9 2.8,23.1 7.5,31.1 16.8,31.1 21.6,23.1 16.8,14.9 "
           id="polygon3551"
           style="fill:#cadd72" /></g></g></g><path
     style="fill:none;stroke:#000000;stroke-width:15.20681095;stroke-linecap:butt;stroke-linejoin:miter;stroke-miterlimit:4;stroke-dasharray:none;stroke-opacity:1"
     d="M 0.52411867,186.97178 H 162.05221"
     id="path130"
     inkscape:connector-curvature="0" /><path
     style="fill:none;stroke:#000000;stroke-width:7.49103928px;stroke-linecap:butt;stroke-linejoin:miter;stroke-opacity:1"
     d="M 65.135388,186.97178 Z"
     id="path136"
     inkscape:connector-curvature="0" /><path
     style="fill:none;stroke:#000000;stroke-width:7.49103928px;stroke-linecap:butt;stroke-linejoin:miter;stroke-opacity:1"
     d="M 65.135388,186.97178 Z"
     id="path150"
     inkscape:connector-curvature="0" /><path
     style="fill:none;stroke:#000000;stroke-width:7.49103928px;stroke-linecap:butt;stroke-linejoin:miter;stroke-opacity:1"
     d="M 65.135388,186.97178 Z"
     id="path152"
     inkscape:connector-curvature="0" /><path
     style="fill:none;stroke:#000000;stroke-width:7.49103928px;stroke-linecap:butt;stroke-linejoin:miter;stroke-opacity:1"
     d="M 65.135388,186.97178 Z"
     id="path154"
     inkscape:connector-curvature="0" /><path
     style="fill:none;stroke:#000000;stroke-width:14.98207855;stroke-linecap:butt;stroke-linejoin:miter;stroke-miterlimit:4;stroke-dasharray:none;stroke-opacity:1"
     d="M 65.135388,186.97178 C 134.36173,180.81831 185.12769,128.51401 86.672499,73.13298"
     id="path156"
     inkscape:connector-curvature="0"
     sodipodi:nodetypes="cc" /><path
     style="fill:none;stroke:#000000;stroke-width:26.21864128;stroke-linecap:butt;stroke-linejoin:miter;stroke-miterlimit:4;stroke-dasharray:none;stroke-opacity:1"
     d="M 128.5161,18.088812 C 122.4118,29.110987 52.823263,114.53278 52.823263,114.53278"
     id="path4652"
     inkscape:connector-curvature="0"
     sodipodi:nodetypes="cc" /><path
     style="fill:none;stroke:#000000;stroke-width:12.66225338;stroke-linecap:butt;stroke-linejoin:miter;stroke-miterlimit:4;stroke-dasharray:none;stroke-opacity:1"
     d="M 139.85364,3.0549232 C 132.83498,15.795256 52.823263,114.53278 52.823263,114.53278"
     id="path4652-3"
     inkscape:connector-curvature="0"
     sodipodi:nodetypes="cc" /></svg>